<svg xmlns="http://www.w3.org/2000/svg" viewBox="0 0 1536 640" role="img" aria-labelledby="title desc">
  <title id="title">大阪冬日旅行行程板</title>
  <desc id="desc">以大阪夜景、航班卡片、五天行程卡與旅行提醒構成的視覺主圖。</desc>
  <defs>
    <linearGradient id="sky" x1="0" x2="1" y1="0" y2="1">
      <stop offset="0" stop-color="#102724"/>
      <stop offset="0.58" stop-color="#133b4a"/>
      <stop offset="1" stop-color="#d94b34"/>
    </linearGradient>
    <linearGradient id="water" x1="0" x2="1">
      <stop offset="0" stop-color="#0f766e"/>
      <stop offset="1" stop-color="#2f6fd6"/>
    </linearGradient>
    <filter id="shadow" x="-20%" y="-20%" width="140%" height="140%">
      <feDropShadow dx="0" dy="18" stdDeviation="18" flood-color="#18211f" flood-opacity="0.22"/>
    </filter>
  </defs>
  <rect width="1536" height="640" fill="#fbfbf8"/>
  <rect width="1536" height="276" fill="url(#sky)"/>
  <path d="M0 232 C180 212 282 260 440 238 C600 216 700 185 840 214 C1012 250 1164 204 1536 226 L1536 276 L0 276 Z" fill="#071817" opacity=".45"/>
  <path d="M0 276 L1536 276 L1536 332 C1204 320 1032 350 780 326 C544 304 372 348 0 326 Z" fill="url(#water)" opacity=".42"/>
  <g opacity=".85">
    <rect x="938" y="54" width="56" height="176" fill="#f5c542"/>
    <rect x="1008" y="34" width="72" height="196" fill="#f7f2e7"/>
    <rect x="1094" y="76" width="48" height="154" fill="#d94b34"/>
    <rect x="1158" y="48" width="78" height="182" fill="#102724"/>
    <rect x="1250" y="64" width="62" height="166" fill="#f7c7cf"/>
    <rect x="1326" y="32" width="74" height="198" fill="#2f6fd6"/>
    <rect x="1416" y="82" width="42" height="148" fill="#f7f2e7"/>
  </g>
  <g fill="#fbfbf8" opacity=".72">
    <circle cx="1084" cy="108" r="5"/>
    <circle cx="1192" cy="104" r="4"/>
    <circle cx="1348" cy="92" r="5"/>
    <circle cx="1450" cy="132" r="4"/>
    <rect x="1028" y="68" width="10" height="22" rx="2"/>
    <rect x="1060" y="68" width="10" height="22" rx="2"/>
    <rect x="1178" y="82" width="12" height="26" rx="2"/>
    <rect x="1210" y="82" width="12" height="26" rx="2"/>
    <rect x="1350" y="62" width="10" height="26" rx="2"/>
    <rect x="1380" y="62" width="10" height="26" rx="2"/>
  </g>
  <g transform="translate(72 58)">
    <text x="0" y="0" fill="#fbfbf8" font-family="Arial, sans-serif" font-size="20" font-weight="700">2026 / OSAKA</text>
    <text x="0" y="70" fill="#fbfbf8" font-family="Arial, sans-serif" font-size="54" font-weight="800">大阪・我們的冬日旅程</text>
    <text x="0" y="118" fill="#f7c7cf" font-family="Arial, sans-serif" font-size="24" font-weight="700">Pokémon Center ・ teamLab ・ 道頓堀晚餐 ・ 梅田夜景</text>
    <rect x="0" y="154" width="152" height="36" rx="8" fill="#d94b34"/>
    <text x="24" y="178" fill="#fff" font-family="Arial, sans-serif" font-size="16" font-weight="700">5 天 4 夜</text>
    <rect x="168" y="154" width="232" height="36" rx="8" fill="#fbfbf8" opacity=".14"/>
    <text x="190" y="178" fill="#fff" font-family="Arial, sans-serif" font-size="16" font-weight="700">11/28 Sat - 12/02 Wed</text>
  </g>
  <g filter="url(#shadow)">
    <rect x="856" y="54" width="268" height="160" rx="8" fill="#fff"/>
    <rect x="1152" y="54" width="268" height="160" rx="8" fill="#fff"/>
    <text x="884" y="88" fill="#64706d" font-family="Arial, sans-serif" font-size="14" font-weight="700">去程 MM024</text>
    <text x="884" y="138" fill="#18211f" font-family="Arial, sans-serif" font-size="38" font-weight="800">TPE</text>
    <text x="1004" y="138" fill="#d94b34" font-family="Arial, sans-serif" font-size="32" font-weight="800">→</text>
    <text x="1040" y="138" fill="#18211f" font-family="Arial, sans-serif" font-size="38" font-weight="800">KIX</text>
    <text x="884" y="184" fill="#64706d" font-family="Arial, sans-serif" font-size="16" font-weight="700">09:40</text>
    <text x="1040" y="184" fill="#64706d" font-family="Arial, sans-serif" font-size="16" font-weight="700">13:10</text>
    <text x="1180" y="88" fill="#64706d" font-family="Arial, sans-serif" font-size="14" font-weight="700">回程 MM027</text>
    <text x="1180" y="138" fill="#18211f" font-family="Arial, sans-serif" font-size="38" font-weight="800">KIX</text>
    <text x="1300" y="138" fill="#d94b34" font-family="Arial, sans-serif" font-size="32" font-weight="800">→</text>
    <text x="1340" y="138" fill="#18211f" font-family="Arial, sans-serif" font-size="38" font-weight="800">TPE</text>
    <text x="1180" y="184" fill="#64706d" font-family="Arial, sans-serif" font-size="16" font-weight="700">15:25</text>
    <text x="1340" y="184" fill="#64706d" font-family="Arial, sans-serif" font-size="16" font-weight="700">17:55</text>
  </g>
  <g transform="translate(72 356)">
    <text x="0" y="0" fill="#18211f" font-family="Arial, sans-serif" font-size="28" font-weight="800">5 天行程一覽</text>
    <line x1="0" y1="42" x2="1390" y2="42" stroke="#dde4df" stroke-width="2"/>
    <g font-family="Arial, sans-serif" font-weight="800">
      <circle cx="108" cy="42" r="16" fill="#0f766e"/><text x="103" y="48" fill="#fff" font-size="16">1</text>
      <circle cx="398" cy="42" r="16" fill="#d94b34"/><text x="393" y="48" fill="#fff" font-size="16">2</text>
      <circle cx="688" cy="42" r="16" fill="#0f766e"/><text x="683" y="48" fill="#fff" font-size="16">3</text>
      <circle cx="978" cy="42" r="16" fill="#d94b34"/><text x="973" y="48" fill="#fff" font-size="16">4</text>
      <circle cx="1268" cy="42" r="16" fill="#0f766e"/><text x="1263" y="48" fill="#fff" font-size="16">5</text>
    </g>
    <g font-family="Arial, sans-serif">
      <g transform="translate(0 82)">
        <rect width="236" height="164" rx="8" fill="#fff" stroke="#dde4df"/>
        <rect width="236" height="64" rx="8" fill="#d94b34" opacity=".9"/>
        <text x="20" y="42" fill="#fff" font-size="20" font-weight="800">抵達・道頓堀</text>
        <text x="20" y="96" fill="#18211f" font-size="16" font-weight="700">關西機場 → 難波</text>
        <text x="20" y="124" fill="#64706d" font-size="15">章魚燒 / 御好燒 / 法善寺</text>
      </g>
      <g transform="translate(290 82)">
        <rect width="236" height="164" rx="8" fill="#fff" stroke="#dde4df"/>
        <rect width="236" height="64" rx="8" fill="#0f766e" opacity=".9"/>
        <text x="20" y="42" fill="#fff" font-size="20" font-weight="800">大阪城・梅田</text>
        <text x="20" y="96" fill="#18211f" font-size="16" font-weight="700">Pokémon Center OSAKA</text>
        <text x="20" y="124" fill="#64706d" font-size="15">Sky Building 夜景</text>
      </g>
      <g transform="translate(580 82)">
        <rect width="236" height="164" rx="8" fill="#fff" stroke="#dde4df"/>
        <rect width="236" height="64" rx="8" fill="#2f6fd6" opacity=".88"/>
        <text x="20" y="42" fill="#fff" font-size="20" font-weight="800">奈良 / 京都</text>
        <text x="20" y="96" fill="#18211f" font-size="16" font-weight="700">半日或一日小旅行</text>
        <text x="20" y="124" fill="#64706d" font-size="15">依體力二選一</text>
      </g>
      <g transform="translate(870 82)">
        <rect width="236" height="164" rx="8" fill="#fff" stroke="#dde4df"/>
        <rect width="236" height="64" rx="8" fill="#d94b34" opacity=".9"/>
        <text x="20" y="42" fill="#fff" font-size="20" font-weight="800">心齋橋重點日</text>
        <text x="20" y="96" fill="#18211f" font-size="16" font-weight="700">OSAKA DX + Cafe</text>
        <text x="20" y="124" fill="#64706d" font-size="15">晚上 teamLab 長居</text>
      </g>
      <g transform="translate(1160 82)">
        <rect width="236" height="164" rx="8" fill="#fff" stroke="#dde4df"/>
        <rect width="236" height="64" rx="8" fill="#0f766e" opacity=".9"/>
        <text x="20" y="42" fill="#fff" font-size="20" font-weight="800">黑門・回台</text>
        <text x="20" y="96" fill="#18211f" font-size="16" font-weight="700">早午餐 + 伴手禮</text>
        <text x="20" y="124" fill="#64706d" font-size="15">12:00 前後去 KIX</text>
      </g>
    </g>
  </g>
</svg>
